# xmcd CD database file
#
# Track frame offsets:
#	150
#	28536
#	41839
#	56668
#	68606
#	82945
#	100097
#	116686
#	135837
#	150085
#	164762
#	177642
#	194424
#	212682
#	229222
#
# Disc length: 3255 seconds
#
# Revision: 0
# Processed by: cddbd v1.5.2PL0 Copyright (c) Steve Scherf et al.
# Submitted via: CDex 1.93
#
DISCID=c40cb50f
DTITLE=Smooth Jazz - Christmas Tunes
DYEAR=2017
DGENRE=Jazz
TTITLE0=Michael Frank - The Way We Celebrate New Year's
TTITLE1=Vanessa Williams - Winter Weather
TTITLE2=Melissa Manchester - My Christmas Song For You
TTITLE3=Joyce Cooling - The Holiday's On
TTITLE4=Chris Standring and Kathrin Shorr - Send Me Some Snow
TTITLE5=Ely Bruna - All I Want For Christmas Is You
TTITLE6=Jacqui Naylor - Winter
TTITLE7=Giorgia and Massimo Papasidero - Oh Happy Day
TTITLE8=David Ian ft. Andre Miguel Mayo and Acacia - Christmas Time With You
TTITLE9=David Barnes and Hillary Scott - Christmas Tonight
TTITLE10=Rick Braun - Sleigh Ride
TTITLE11=Mindy Smith - The Christmas Song
TTITLE12=Maysa - It's The Holiday
TTITLE13=Gregg Karukas - Silent Night (Oh Tannenbaum)
TTITLE14=Nils Landgren - Last Christmas
EXTD=YEAR: 2017
EXTT0=
EXTT1=
EXTT2=
EXTT3=
EXTT4=
EXTT5=
EXTT6=
EXTT7=
EXTT8=
EXTT9=
EXTT10=
EXTT11=
EXTT12=
EXTT13=
EXTT14=
PLAYORDER=
